# xmcd CD database file
#
# Track frame offsets:
#	150
#	11135
#	24995
#	41551
#	56677
#	64945
#	76030
#	86933
#	102451
#	114413
#	123758
#
# Disc length: 1877 seconds
#
# Revision: 0
# Processed by: cddbd v1.5.2PL0 Copyright (c) Steve Scherf et al.
# Submitted via: CDex 1.81
#
DISCID=8807530b
DTITLE=Rusty Shovel - Acoustic Outlaw Country
DYEAR=1900
DGENRE=Country
TTITLE0=Mama tried
TTITLE1=Me and Bobby McGee
TTITLE2=Please come to Boston
TTITLE3=Willie, Waylon and me
TTITLE4=Bottle let me down
TTITLE5=Mamas don't let your babies grow up to be cowboys
TTITLE6=Okie from Muskogee
TTITLE7=Jack Daniels if you please
TTITLE8=Tennessee whiskey
TTITLE9=Branded man
TTITLE10=Ghost of Hank Williams
EXTD=
EXTT0=
EXTT1=
EXTT2=
EXTT3=
EXTT4=
EXTT5=
EXTT6=
EXTT7=
EXTT8=
EXTT9=
EXTT10=
PLAYORDER=
